<svg width="88" height="87" viewBox="0 0 88 87" fill="none" xmlns="http://www.w3.org/2000/svg">
<circle cx="44.333" cy="43.5" r="43.5" fill="#FCFCFC"/>
<path d="M28.2545 64C27.0659 64 26.0598 63.5882 25.2363 62.7647C24.4127 61.9412 24.001 60.9351 24.001 59.7465V28.2535C24.001 27.0649 24.4127 26.0588 25.2363 25.2353C26.0598 24.4118 27.0659 24 28.2545 24H59.7474C60.9361 24 61.9422 24.4118 62.7657 25.2353C63.5892 26.0588 64.001 27.0649 64.001 28.2535V59.7465C64.001 60.9351 63.5892 61.9412 62.7657 62.7647C61.9422 63.5882 60.9361 64 59.7474 64H28.2545ZM60.4716 33.8188L46.5533 49.4118L38.7022 41.5612C38.2771 41.1357 37.781 40.9229 37.2139 40.9229C36.6465 40.9229 36.1502 41.1357 35.7251 41.5612L27.5304 49.7559V54.7871L37.2139 45.1041L45.1139 53.0047C45.5394 53.4298 46.0576 53.6363 46.6686 53.6241C47.2792 53.6124 47.7851 53.3741 48.1863 52.9094L60.4716 39.1129V33.8188Z" fill="#42C595"/>
</svg>
