<svg width="88" height="87" viewBox="0 0 88 87" fill="none" xmlns="http://www.w3.org/2000/svg">
<circle cx="44" cy="43.5" r="43.5" fill="#FCFCFC"/>
<path d="M41.2553 49.8705H44.5342L44.7689 47.5832C45.1847 47.4779 45.5742 47.3247 45.9374 47.1237C46.3002 46.9223 46.6098 46.6732 46.8663 46.3763L48.9232 47.3279L50.5626 44.5384L48.7411 43.1821C48.8919 42.753 48.9674 42.3239 48.9674 41.8947C48.9674 41.4656 48.8919 41.0365 48.7411 40.6074L50.5626 39.2511L48.9232 36.4616L46.8663 37.4132C46.6098 37.1163 46.3002 36.8672 45.9374 36.6658C45.5742 36.4647 45.1847 36.3116 44.7689 36.2063L44.5342 33.9189H41.2553L41.0205 36.2063C40.6047 36.3116 40.2153 36.4647 39.8521 36.6658C39.4893 36.8672 39.1797 37.1163 38.9232 37.4132L36.8663 36.4616L35.2268 39.2511L37.0484 40.6074C36.8975 41.0365 36.8221 41.4656 36.8221 41.8947C36.8221 42.3239 36.8975 42.753 37.0484 43.1821L35.2268 44.5384L36.8663 47.3279L38.9232 46.3763C39.1797 46.6732 39.4893 46.9223 39.8521 47.1237C40.2153 47.3247 40.6047 47.4779 41.0205 47.5832L41.2553 49.8705ZM42.8947 45.4374C41.9095 45.4374 41.0728 45.0932 40.3847 44.4047C39.6963 43.7167 39.3521 42.88 39.3521 41.8947C39.3521 40.9095 39.6963 40.0728 40.3847 39.3847C41.0728 38.6963 41.9095 38.3521 42.8947 38.3521C43.88 38.3521 44.7167 38.6963 45.4047 39.3847C46.0932 40.0728 46.4374 40.9095 46.4374 41.8947C46.4374 42.88 46.0932 43.7167 45.4047 44.4047C44.7167 45.0932 43.88 45.4374 42.8947 45.4374ZM31.3158 64V55.5142C29.3158 53.6897 27.7632 51.5986 26.6579 49.2411C25.5526 46.8832 25 44.4277 25 41.8747C25 36.9084 26.7409 32.6877 30.2226 29.2126C33.7044 25.7375 37.9284 24 42.8947 24C46.9839 24 50.6404 25.2221 53.8642 27.6663C57.0884 30.1102 59.1823 33.2809 60.1458 37.1784L62.5989 46.8947C62.7611 47.494 62.6518 48.0386 62.2711 48.5284C61.8907 49.0182 61.3833 49.2632 60.749 49.2632H56.579V55.9837C56.579 57.0335 56.2072 57.9304 55.4637 58.6742C54.7198 59.4177 53.823 59.7895 52.7732 59.7895H48.1579V64H31.3158Z" fill="#F29F05"/>
</svg>
