<svg width="88" height="87" viewBox="0 0 88 87" fill="none" xmlns="http://www.w3.org/2000/svg">
<circle cx="43.6665" cy="43.5" r="43.5" fill="#FCFCFC"/>
<path d="M37.9891 63H29.4646C28.5514 63 27.7734 62.6786 27.1307 62.0359C26.4879 61.3931 26.1665 60.6151 26.1665 59.7019V51.1774C27.6719 50.9942 28.9644 50.3684 30.044 49.3002C31.1236 48.2316 31.6634 46.9349 31.6634 45.4101C31.6634 43.8853 31.1236 42.5886 30.044 41.52C28.9644 40.4518 27.6719 39.826 26.1665 39.6428V31.1183C26.1665 30.2051 26.4879 29.4271 27.1307 28.7843C27.7734 28.1416 28.5514 27.8202 29.4646 27.8202H38.2596C38.4571 26.4222 39.0694 25.2693 40.0966 24.3616C41.1242 23.4539 42.3441 23 43.7564 23C45.1687 23 46.3887 23.4539 47.4162 24.3616C48.4434 25.2693 49.0557 26.4222 49.2533 27.8202H58.0482C58.9614 27.8202 59.7394 28.1416 60.3822 28.7843C61.0249 29.4271 61.3463 30.2051 61.3463 31.1183V39.9132C62.7444 40.1108 63.8972 40.7231 64.8049 41.7503C65.7127 42.7778 66.1665 43.9978 66.1665 45.4101C66.1665 46.8224 65.7127 48.0423 64.8049 49.0699C63.8972 50.0971 62.7444 50.7094 61.3463 50.9069V59.7019C61.3463 60.6151 61.0249 61.3931 60.3822 62.0359C59.7394 62.6786 58.9614 63 58.0482 63H49.5237C49.3265 61.4213 48.6825 60.1105 47.5916 59.0676C46.5006 58.0246 45.2222 57.5032 43.7564 57.5032C42.2906 57.5032 41.0122 58.0246 39.9213 59.0676C38.8303 60.1105 38.1863 61.4213 37.9891 63Z" fill="#FF5D7A"/>
</svg>
